<svg id="svg" version="1.1" xmlns="http://www.w3.org/2000/svg" xmlns:xlink="http://www.w3.org/1999/xlink" width="400" height="276.2589928057554" viewBox="0, 0, 400,276.2589928057554"><g id="svgg"><path id="path0" d="M0.000 138.217 L 0.000 276.434 200.000 276.434 L 400.000 276.434 400.000 138.217 L 400.000 0.000 200.000 0.000 L 0.000 0.000 0.000 138.217 M221.285 42.855 C 238.634 44.475,250.831 54.816,253.953 70.553 C 257.293 87.392,245.951 104.738,232.979 102.625 C 231.114 102.322,231.077 102.340,230.267 103.939 C 225.205 113.940,213.853 124.159,200.215 130.991 C 195.847 133.180,196.105 132.852,195.697 136.714 C 195.077 142.576,194.411 147.524,193.524 152.868 C 193.385 153.704,193.144 155.197,192.987 156.185 C 192.831 157.173,192.645 158.231,192.574 158.535 C 192.503 158.839,192.300 159.834,192.123 160.746 C 190.414 169.540,187.392 180.354,185.731 183.618 C 185.597 183.882,185.487 184.227,185.487 184.385 C 185.487 184.950,182.991 189.930,181.496 192.346 C 177.371 199.015,167.744 206.419,158.811 209.794 C 157.899 210.138,156.904 210.531,156.600 210.666 C 156.296 210.801,155.301 211.111,154.388 211.354 C 153.476 211.597,152.294 211.918,151.762 212.067 C 147.218 213.339,137.326 213.816,134.070 212.920 C 133.538 212.774,132.442 212.499,131.634 212.309 C 130.826 212.120,129.830 211.805,129.422 211.610 C 129.014 211.415,128.182 211.035,127.574 210.764 C 122.861 208.669,118.407 203.269,117.100 198.065 C 114.511 187.754,119.809 175.547,132.041 163.641 C 139.255 156.619,142.763 153.949,153.836 147.051 C 160.490 142.906,174.782 136.278,179.761 135.028 C 180.725 134.786,180.543 135.811,182.190 121.355 C 182.355 119.910,182.604 117.972,182.744 117.047 C 183.326 113.209,183.127 112.970,181.193 115.189 C 173.149 124.414,158.528 132.749,151.077 132.358 C 146.739 132.131,143.026 129.255,143.614 126.578 C 144.005 124.796,145.677 124.485,147.078 125.934 C 153.362 132.436,176.619 118.770,183.297 104.651 C 185.147 100.739,186.918 100.373,188.527 103.570 C 189.691 105.880,191.619 108.448,194.337 111.306 C 196.010 113.064,197.454 114.804,197.546 115.171 C 197.702 115.793,197.291 122.980,196.913 126.261 C 196.700 128.097,196.786 128.100,200.154 126.374 C 211.122 120.753,221.972 110.610,226.640 101.614 L 227.454 100.044 226.913 98.502 C 226.083 96.143,226.604 94.628,228.525 93.815 C 230.544 92.960,232.485 94.348,232.614 96.740 C 232.708 98.478,232.716 98.487,234.269 98.456 C 243.419 98.272,251.319 86.694,249.929 75.504 C 247.614 56.864,235.428 47.117,214.600 47.248 C 209.675 47.279,208.708 46.964,208.708 45.330 C 208.708 42.834,212.682 42.052,221.285 42.855 M197.002 76.023 C 201.842 78.109,203.113 84.788,199.421 88.734 C 194.968 93.495,187.599 91.248,186.050 84.658 C 185.192 81.008,188.262 76.179,191.816 75.587 C 192.364 75.496,192.937 75.378,193.089 75.324 C 193.629 75.135,195.871 75.535,197.002 76.023 M192.536 80.029 C 188.222 81.560,190.319 88.118,194.703 86.805 C 198.118 85.782,198.417 81.362,195.160 80.059 C 193.842 79.532,193.937 79.533,192.536 80.029 M187.584 111.610 C 187.481 112.180,187.279 113.766,187.136 115.135 C 186.648 119.792,186.583 120.387,186.311 122.668 C 185.823 126.774,185.508 129.467,185.205 132.135 C 184.629 137.213,184.298 139.802,182.995 149.413 C 182.541 152.757,182.040 156.303,181.882 157.291 C 181.723 158.279,181.479 159.834,181.341 160.746 C 180.956 163.277,180.194 167.622,179.669 170.283 C 179.534 170.968,179.301 172.149,179.151 172.909 C 178.614 175.633,178.023 178.163,177.505 179.959 C 177.351 180.491,177.109 181.361,176.968 181.894 C 175.597 187.044,172.795 192.566,169.076 197.449 C 167.329 199.743,167.226 200.078,168.465 199.435 C 170.860 198.192,175.073 194.407,177.066 191.707 C 177.515 191.099,177.945 190.539,178.023 190.463 C 178.633 189.863,181.894 183.634,181.894 183.068 C 181.894 182.949,182.392 181.300,183.000 179.401 C 184.526 174.644,185.190 172.261,186.040 168.487 C 186.211 167.726,186.459 166.669,186.590 166.137 C 186.721 165.605,186.972 164.423,187.148 163.511 C 187.324 162.598,187.575 161.355,187.707 160.746 C 188.839 155.510,190.623 144.244,191.581 136.282 C 192.303 130.280,192.807 125.424,193.216 120.525 C 193.523 116.849,193.731 117.358,190.187 113.104 C 187.789 110.226,187.830 110.249,187.584 111.610 M175.674 141.145 C 161.226 147.422,149.953 154.329,140.428 162.742 C 131.527 170.604,125.597 178.592,123.235 185.902 C 116.387 207.098,136.161 216.667,157.520 202.492 C 165.490 197.203,172.104 186.187,175.114 173.186 C 175.360 172.122,175.622 171.002,175.696 170.698 C 175.770 170.394,175.947 169.212,176.089 168.072 C 176.330 166.138,176.452 165.253,177.204 159.986 C 177.361 158.884,177.606 157.111,177.747 156.047 C 177.889 154.983,178.137 153.179,178.300 152.039 C 178.462 150.898,178.711 149.095,178.853 148.030 C 178.994 146.966,179.244 145.162,179.408 144.022 C 179.885 140.698,180.036 139.322,179.925 139.333 C 179.867 139.339,177.954 140.154,175.674 141.145 M177.380 237.220 C 178.165 237.871,177.796 260.955,176.972 262.751 C 173.397 270.538,160.116 267.743,160.664 259.318 L 160.746 258.051 162.661 258.051 L 164.575 258.051 164.890 259.433 C 165.527 262.229,166.637 263.215,169.173 263.239 C 173.142 263.276,173.158 263.219,173.324 248.944 L 173.462 237.047 174.292 236.858 C 175.369 236.612,176.858 236.786,177.380 237.220 M200.891 236.901 C 207.987 237.541,211.676 242.936,209.380 249.320 C 208.486 251.807,205.151 254.596,203.070 254.596 C 202.200 254.596,202.672 255.519,206.254 260.815 C 210.421 266.975,210.434 267.035,207.630 267.035 C 205.267 267.035,205.733 267.506,201.379 260.725 C 197.701 254.998,197.589 254.883,195.669 254.876 C 193.695 254.869,193.780 254.603,193.780 260.790 C 193.780 267.170,193.828 267.035,191.547 267.035 C 189.196 267.035,189.343 268.102,189.424 251.674 L 189.496 237.067 190.187 236.875 C 191.204 236.592,197.637 236.608,200.891 236.901 M194.126 240.660 C 193.867 240.780,193.780 242.167,193.780 246.207 L 193.780 251.595 197.858 251.506 C 203.988 251.372,205.376 250.356,205.386 245.998 C 205.395 242.013,203.789 240.840,198.043 240.630 C 196.078 240.558,194.316 240.572,194.126 240.660 " stroke="none" fill="#0b0b0b" fill-rule="evenodd"></path><path id="path1" d="M210.781 43.743 C 209.315 44.272,208.770 45.606,209.795 46.155 C 210.096 46.316,212.184 46.443,214.564 46.446 C 231.025 46.464,241.089 51.634,246.843 63.027 C 248.539 66.384,249.110 68.024,250.145 72.499 C 250.806 75.357,250.448 83.513,249.587 85.207 C 249.453 85.471,249.343 85.877,249.343 86.109 C 249.343 86.341,249.234 86.747,249.099 87.011 C 248.965 87.275,248.688 87.865,248.484 88.321 C 245.753 94.424,239.491 99.240,234.285 99.240 C 232.266 99.240,231.767 98.869,232.028 97.563 C 232.405 95.683,231.427 94.494,229.505 94.494 C 227.249 94.494,226.399 96.187,227.505 98.476 C 228.281 100.082,228.212 100.324,225.829 104.354 C 220.559 113.262,208.894 123.221,197.729 128.344 C 196.704 128.814,196.247 128.182,196.400 126.505 C 196.471 125.725,196.678 122.950,196.859 120.340 C 197.246 114.782,197.513 115.535,193.750 111.574 C 191.049 108.731,189.624 106.880,188.511 104.768 C 186.574 101.092,185.588 101.293,183.342 105.821 C 178.973 114.630,168.068 123.508,157.015 127.253 C 151.771 129.030,149.433 128.902,147.218 126.718 C 145.866 125.385,145.553 125.290,144.636 125.931 C 143.511 126.719,143.797 128.012,145.418 129.469 C 148.023 131.811,151.330 132.423,155.430 131.322 C 161.476 129.698,171.318 123.979,176.617 119.009 C 178.269 117.459,179.194 116.507,182.121 113.338 C 183.356 112.001,184.013 112.117,183.695 113.614 C 183.553 114.287,183.202 117.133,182.741 121.355 C 182.453 123.992,181.364 132.826,181.185 133.974 C 181.005 135.133,180.748 135.308,177.780 136.286 C 170.378 138.725,158.470 144.634,149.689 150.224 C 121.273 168.315,109.560 191.854,122.013 205.842 C 123.126 207.092,127.036 210.090,127.554 210.090 C 127.632 210.090,128.415 210.421,129.294 210.826 C 130.173 211.231,131.389 211.667,131.997 211.795 C 132.605 211.922,133.849 212.182,134.762 212.372 C 138.981 213.248,147.455 212.693,152.730 211.195 C 153.338 211.022,154.147 210.818,154.527 210.741 C 154.907 210.664,155.466 210.498,155.771 210.372 C 156.075 210.246,157.381 209.737,158.673 209.241 C 163.309 207.462,169.571 203.880,172.587 201.282 C 177.019 197.463,178.873 195.507,180.750 192.668 C 182.107 190.616,184.221 186.636,184.967 184.727 C 185.101 184.385,185.331 183.825,185.478 183.483 C 186.579 180.925,188.949 173.158,189.928 168.901 C 190.085 168.217,190.332 167.160,190.477 166.551 C 190.622 165.943,190.876 164.762,191.042 163.925 C 191.208 163.089,191.456 161.845,191.593 161.161 C 192.331 157.484,193.275 151.927,193.753 148.445 C 193.909 147.305,194.167 145.439,194.325 144.299 C 194.644 142.004,195.056 138.454,195.408 134.961 C 195.535 133.702,195.688 132.625,195.746 132.568 C 195.805 132.511,197.782 131.499,200.138 130.320 C 202.495 129.141,205.107 127.740,205.943 127.208 C 210.309 124.429,211.508 123.629,213.407 122.232 C 217.217 119.428,223.900 112.388,226.966 107.947 C 227.490 107.187,227.982 106.503,228.058 106.427 C 228.206 106.279,228.551 105.682,229.643 103.685 C 230.775 101.613,230.801 101.600,233.097 101.891 C 236.190 102.283,238.613 101.820,241.603 100.265 C 244.462 98.779,245.970 97.415,249.202 93.392 C 253.801 87.667,255.081 74.506,251.900 65.653 C 247.993 54.777,239.303 47.363,227.091 44.485 C 222.876 43.492,212.752 43.032,210.781 43.743 M190.617 76.862 C 186.076 79.127,185.097 84.714,188.599 88.381 C 191.915 91.854,198.386 90.758,200.378 86.386 C 200.586 85.930,200.865 85.340,201.000 85.076 C 201.836 83.433,200.690 79.873,198.766 78.135 C 196.648 76.221,193.033 75.656,190.617 76.862 M195.496 79.311 C 196.993 79.893,198.481 82.617,198.109 84.097 C 197.345 87.140,193.704 88.691,191.417 86.947 C 187.295 83.803,190.691 77.444,195.496 79.311 M189.662 111.610 C 190.630 112.789,191.846 114.216,192.364 114.783 C 194.029 116.607,194.120 116.822,193.947 118.534 C 193.860 119.401,193.666 121.417,193.516 123.013 C 192.814 130.508,191.770 139.191,190.774 145.819 C 190.071 150.497,187.869 162.446,187.131 165.584 C 186.971 166.268,186.728 167.326,186.593 167.934 C 185.505 172.818,183.117 180.857,181.643 184.594 C 179.104 191.030,173.262 197.643,167.563 200.530 C 165.369 201.643,165.378 201.167,167.605 198.530 C 172.551 192.673,175.813 185.899,177.746 177.471 C 179.340 170.521,181.679 157.134,182.456 150.518 C 182.581 149.454,182.826 147.526,182.999 146.234 C 183.485 142.622,183.824 139.956,184.115 137.457 C 184.262 136.202,184.509 134.088,184.665 132.757 C 185.829 122.827,186.485 116.757,186.815 112.883 C 186.990 110.825,187.395 109.468,187.834 109.468 C 187.871 109.468,188.693 110.432,189.662 111.610 M180.285 139.242 C 180.384 139.752,180.181 141.775,179.681 145.266 C 179.506 146.482,179.261 148.286,179.136 149.274 C 178.794 151.965,178.289 155.543,177.740 159.157 C 177.584 160.183,177.143 163.262,176.760 165.999 C 173.670 188.064,163.981 202.329,148.301 207.899 C 136.258 212.177,124.843 208.660,122.215 199.862 C 122.010 199.178,121.733 198.257,121.599 197.816 C 121.255 196.689,121.294 191.284,121.658 189.707 C 122.683 185.253,123.899 182.381,127.087 176.877 C 131.120 169.915,143.571 158.486,154.876 151.368 C 159.421 148.507,170.205 142.640,170.920 142.640 C 170.996 142.640,172.096 142.163,173.366 141.580 C 174.635 140.998,176.109 140.349,176.641 140.138 C 177.173 139.928,178.044 139.539,178.576 139.274 C 179.807 138.661,180.172 138.654,180.285 139.242 M173.864 249.136 C 173.849 262.141,173.855 262.095,171.970 263.363 C 169.097 265.296,164.943 263.418,164.352 259.920 C 164.131 258.611,163.616 258.307,162.105 258.590 C 161.017 258.794,160.960 259.070,161.574 261.138 C 163.483 267.566,173.099 268.645,176.304 262.790 C 176.730 262.012,176.788 260.638,176.864 249.689 L 176.949 237.457 175.413 237.457 L 173.877 237.457 173.864 249.136 M190.187 251.984 L 190.187 266.511 191.638 266.428 L 193.089 266.344 193.227 260.401 L 193.366 254.457 195.715 254.457 L 198.065 254.457 200.276 257.777 C 201.493 259.602,203.272 262.308,204.230 263.789 L 205.972 266.482 207.340 266.482 C 209.241 266.482,209.218 266.417,205.252 260.544 C 201.435 254.892,201.051 253.766,202.935 253.766 C 207.330 253.766,210.541 247.534,208.692 242.594 C 207.187 238.570,204.378 237.457,195.731 237.457 L 190.187 237.457 190.187 251.984 M203.068 240.607 C 207.853 242.834,207.147 250.542,202.020 252.052 C 201.245 252.280,199.525 252.375,197.097 252.324 L 193.366 252.246 193.291 246.448 C 193.249 243.259,193.277 240.491,193.351 240.297 C 193.625 239.582,201.400 239.830,203.068 240.607 " stroke="none" fill="#ababab" fill-rule="evenodd"></path><path id="path2" d="M215.135 43.049 C 215.705 43.108,216.638 43.108,217.208 43.049 C 217.778 42.989,217.312 42.940,216.171 42.940 C 215.031 42.940,214.565 42.989,215.135 43.049 M239.115 53.715 C 239.115 53.762,239.520 54.167,240.014 54.613 L 240.912 55.425 240.100 54.527 C 239.344 53.689,239.115 53.501,239.115 53.715 M254.107 75.466 C 254.107 75.999,254.164 76.216,254.233 75.950 C 254.303 75.684,254.303 75.249,254.233 74.983 C 254.164 74.717,254.107 74.934,254.107 75.466 M246.424 97.097 L 245.612 97.996 246.510 97.184 C 247.004 96.737,247.408 96.333,247.408 96.286 C 247.408 96.072,247.180 96.260,246.424 97.097 M192.813 110.297 C 193.561 111.057,194.236 111.679,194.312 111.679 C 194.388 111.679,193.838 111.057,193.089 110.297 C 192.340 109.537,191.666 108.915,191.590 108.915 C 191.514 108.915,192.064 109.537,192.813 110.297 M220.871 115.688 C 220.199 116.372,219.712 116.932,219.788 116.932 C 219.864 116.932,220.476 116.372,221.147 115.688 C 221.819 115.003,222.306 114.444,222.230 114.444 C 222.154 114.444,221.542 115.003,220.871 115.688 M116.730 192.674 C 116.730 193.359,116.784 193.639,116.850 193.296 C 116.916 192.954,116.916 192.395,116.850 192.053 C 116.784 191.710,116.730 191.990,116.730 192.674 M121.440 194.195 C 121.442 195.107,121.493 195.447,121.555 194.950 C 121.616 194.453,121.615 193.707,121.552 193.292 C 121.489 192.876,121.439 193.283,121.440 194.195 M189.760 237.526 C 189.688 237.716,189.661 244.216,189.700 251.970 L 189.772 266.068 189.910 251.624 C 189.986 243.680,190.013 237.180,189.971 237.180 C 189.928 237.180,189.833 237.336,189.760 237.526 M193.343 246.164 C 193.343 249.053,193.384 250.197,193.434 248.707 C 193.483 247.217,193.483 244.853,193.433 243.455 C 193.383 242.056,193.342 243.276,193.343 246.164 M193.344 260.815 C 193.343 263.856,193.384 265.138,193.433 263.664 C 193.483 262.189,193.483 259.701,193.434 258.135 C 193.384 256.568,193.344 257.775,193.344 260.815 " stroke="none" fill="#6c6c6c" fill-rule="evenodd"></path><path id="path3" d="M213.891 43.329 C 215.145 43.381,217.198 43.381,218.452 43.329 C 219.706 43.278,218.680 43.236,216.171 43.236 C 213.663 43.236,212.636 43.278,213.891 43.329 M209.663 44.079 C 207.660 46.082,208.919 46.621,216.033 46.810 C 231.450 47.218,240.356 51.808,246.159 62.336 C 246.997 63.856,247.683 64.962,247.684 64.793 C 247.688 63.593,244.372 58.677,241.540 55.684 C 235.380 49.177,227.446 46.460,214.564 46.446 C 212.184 46.443,210.096 46.316,209.795 46.155 C 208.770 45.606,209.315 44.272,210.781 43.743 C 211.508 43.481,211.532 43.441,210.976 43.422 C 210.627 43.410,210.036 43.705,209.663 44.079 M222.253 43.691 C 222.937 43.812,223.932 43.907,224.464 43.900 L 225.432 43.888 224.603 43.677 C 224.147 43.561,223.151 43.466,222.391 43.467 L 221.009 43.469 222.253 43.691 M225.985 44.229 C 226.289 44.360,226.849 44.467,227.229 44.467 C 227.859 44.467,227.871 44.446,227.367 44.229 C 227.063 44.099,226.503 43.992,226.123 43.992 C 225.493 43.992,225.481 44.013,225.985 44.229 M228.334 44.782 C 228.563 44.930,228.998 45.043,229.302 45.035 L 229.855 45.020 229.302 44.782 C 228.476 44.427,227.785 44.427,228.334 44.782 M230.408 45.330 C 230.712 45.459,231.831 45.895,232.896 46.299 C 240.557 49.208,246.899 54.949,250.458 62.198 C 254.663 70.761,254.862 82.205,250.944 90.117 C 250.304 91.410,249.728 92.578,249.664 92.713 C 249.600 92.848,249.676 92.880,249.831 92.784 C 250.605 92.305,252.651 87.246,253.340 84.105 C 256.871 68.010,248.515 52.232,233.187 46.055 C 231.828 45.507,230.521 45.067,230.285 45.077 C 229.980 45.091,230.015 45.164,230.408 45.330 M249.367 70.214 C 249.375 70.442,249.489 70.878,249.620 71.182 L 249.857 71.735 249.873 71.182 C 249.881 70.878,249.767 70.442,249.620 70.214 C 249.382 69.846,249.354 69.846,249.367 70.214 M250.075 73.670 C 250.168 74.430,250.290 75.104,250.346 75.167 C 250.563 75.409,250.398 73.366,250.159 72.840 C 249.989 72.468,249.962 72.739,250.075 73.670 M192.093 75.990 C 190.129 76.396,188.321 77.750,187.126 79.709 C 186.283 81.093,186.508 81.237,187.376 79.869 C 190.041 75.667,195.264 74.966,198.980 78.311 C 200.263 79.467,200.267 79.468,199.557 78.507 C 198.140 76.588,194.743 75.442,192.093 75.990 M192.734 79.096 C 189.289 80.089,188.471 84.734,191.361 86.889 C 192.237 87.542,193.909 88.061,193.617 87.590 C 193.537 87.460,193.342 87.353,193.184 87.353 C 190.786 87.353,189.065 83.708,190.318 81.285 C 191.601 78.804,195.647 78.681,197.109 81.078 C 197.405 81.564,197.649 81.769,197.649 81.533 C 197.651 80.919,196.019 79.466,194.914 79.097 C 193.853 78.743,193.955 78.743,192.734 79.096 M200.700 80.995 C 200.700 81.223,200.820 81.596,200.968 81.824 C 201.206 82.193,201.235 82.193,201.235 81.824 C 201.235 81.596,201.115 81.223,200.968 80.995 C 200.729 80.627,200.700 80.627,200.700 80.995 M250.072 82.069 C 249.965 82.735,249.936 83.339,250.008 83.410 C 250.193 83.596,250.529 81.648,250.385 81.218 C 250.319 81.020,250.178 81.403,250.072 82.069 M186.252 82.414 C 186.182 82.891,186.218 83.668,186.331 84.142 C 186.495 84.831,186.542 84.657,186.565 83.276 C 186.595 81.410,186.456 81.026,186.252 82.414 M197.813 82.735 C 198.211 84.445,196.923 86.490,195.006 87.192 C 194.289 87.455,194.116 87.597,194.500 87.610 C 196.492 87.677,198.950 83.909,197.914 82.377 C 197.707 82.071,197.680 82.164,197.813 82.735 M249.652 84.221 C 249.634 84.398,249.539 84.771,249.441 85.050 C 249.302 85.443,249.339 85.485,249.605 85.240 C 249.794 85.066,249.889 84.693,249.816 84.411 C 249.743 84.129,249.670 84.043,249.652 84.221 M187.146 86.906 C 187.146 87.668,190.467 90.414,191.348 90.380 C 191.545 90.373,191.176 90.109,190.526 89.794 C 189.877 89.479,188.850 88.659,188.246 87.972 C 187.641 87.285,187.146 86.805,187.146 86.906 M199.073 88.207 C 198.715 88.660,197.844 89.331,197.138 89.699 C 196.431 90.067,196.015 90.374,196.213 90.381 C 196.851 90.404,198.038 89.638,199.158 88.482 C 199.759 87.861,200.132 87.360,199.987 87.368 C 199.842 87.377,199.431 87.754,199.073 88.207 M247.911 88.812 C 245.654 93.399,241.301 97.326,237.220 98.457 C 233.694 99.435,231.962 99.038,232.336 97.336 C 232.722 95.578,231.033 93.791,229.257 94.080 C 228.259 94.241,226.951 95.198,226.954 95.763 C 226.954 95.927,227.237 95.708,227.582 95.278 C 229.248 93.195,232.561 94.898,232.028 97.563 C 231.298 101.214,239.492 99.175,244.014 94.581 C 246.004 92.558,249.134 87.881,248.753 87.500 C 248.681 87.428,248.302 88.018,247.911 88.812 M192.744 90.659 C 193.314 90.769,194.247 90.769,194.817 90.659 C 195.632 90.500,195.410 90.457,193.780 90.457 C 192.150 90.457,191.929 90.500,192.744 90.659 M247.994 94.853 C 246.917 96.331,244.995 98.147,242.978 99.592 C 242.304 100.075,242.307 100.076,243.198 99.651 C 244.840 98.868,250.383 93.107,249.430 93.174 C 249.306 93.183,248.660 93.938,247.994 94.853 M227.623 99.944 C 227.612 100.454,227.705 100.807,227.831 100.730 C 228.115 100.554,228.131 99.317,227.851 99.145 C 227.737 99.075,227.634 99.435,227.623 99.944 M240.912 100.585 C 238.854 101.768,235.961 102.254,233.121 101.894 C 230.866 101.608,230.694 101.682,229.866 103.297 C 229.569 103.878,229.089 104.703,228.800 105.130 C 228.511 105.557,228.336 105.968,228.411 106.043 C 228.549 106.181,229.105 105.330,230.282 103.179 C 230.983 101.896,231.259 101.819,233.568 102.265 C 235.688 102.674,240.151 101.708,241.758 100.492 C 242.491 99.938,241.931 100.000,240.912 100.585 M185.142 102.303 C 184.663 102.582,184.062 103.565,183.553 104.905 C 183.118 106.049,183.487 105.686,184.049 104.417 C 185.019 102.223,186.097 101.732,187.375 102.903 L 188.055 103.525 187.569 102.764 C 187.053 101.958,186.058 101.769,185.142 102.303 M225.357 104.559 C 220.529 112.395,210.368 121.492,200.829 126.520 C 199.309 127.321,198.205 127.980,198.377 127.983 C 198.857 127.992,202.774 125.867,205.389 124.177 C 212.934 119.304,220.399 112.428,224.209 106.842 C 225.605 104.796,226.976 102.488,226.863 102.375 C 226.808 102.321,226.131 103.304,225.357 104.559 M187.975 103.786 C 187.975 104.602,190.866 108.577,193.299 111.106 C 194.407 112.257,195.731 113.689,196.242 114.287 L 197.170 115.375 197.025 118.434 C 196.927 120.499,196.951 120.999,197.099 119.972 C 197.756 115.431,197.752 115.422,193.453 110.919 C 191.768 109.155,190.262 107.251,189.462 105.874 C 188.299 103.874,187.975 103.418,187.975 103.786 M182.081 107.676 C 179.193 112.697,173.054 118.572,166.771 122.328 C 165.524 123.073,164.548 123.728,164.602 123.782 C 164.758 123.938,168.832 121.412,171.113 119.745 C 173.505 117.996,179.049 112.525,180.686 110.297 C 181.897 108.648,183.361 106.144,183.205 105.987 C 183.151 105.934,182.646 106.694,182.081 107.676 M227.168 107.635 C 225.640 110.049,222.887 113.299,219.307 116.914 C 217.284 118.957,215.672 120.671,215.725 120.724 C 215.925 120.924,222.421 114.190,224.450 111.679 C 226.876 108.677,228.463 106.422,228.140 106.437 C 228.019 106.443,227.582 106.982,227.168 107.635 M187.408 109.899 C 187.211 110.137,187.016 111.038,186.974 111.903 L 186.898 113.476 187.134 111.996 C 187.449 110.009,187.792 109.712,188.589 110.734 C 188.935 111.178,190.036 112.474,191.036 113.614 C 193.794 116.761,193.878 116.930,193.685 118.941 C 193.578 120.058,193.608 120.469,193.769 120.111 C 194.622 118.215,193.824 115.963,191.564 113.891 C 191.481 113.815,190.623 112.789,189.657 111.610 C 187.660 109.174,187.875 109.337,187.408 109.899 M181.212 114.305 C 180.191 115.446,179.460 116.371,179.588 116.362 C 179.716 116.353,180.487 115.545,181.302 114.566 C 183.081 112.429,183.620 112.274,183.418 113.960 C 183.289 115.031,183.301 115.061,183.556 114.305 C 183.851 113.431,183.706 112.232,183.304 112.232 C 183.174 112.232,182.232 113.165,181.212 114.305 M186.507 115.557 C 186.406 115.933,186.337 116.738,186.353 117.346 C 186.379 118.388,186.396 118.365,186.631 116.948 C 186.896 115.347,186.813 114.412,186.507 115.557 M183.078 117.070 C 183.080 117.830,183.134 118.108,183.198 117.688 C 183.261 117.268,183.260 116.646,183.194 116.306 C 183.128 115.966,183.076 116.310,183.078 117.070 M178.687 117.011 C 178.520 117.195,177.612 118.076,176.669 118.968 C 175.727 119.860,174.993 120.625,175.038 120.667 C 175.084 120.710,176.103 119.824,177.304 118.700 C 178.505 117.575,179.375 116.660,179.239 116.666 C 179.103 116.671,178.854 116.827,178.687 117.011 M182.529 121.631 C 182.529 122.467,182.581 122.809,182.644 122.391 C 182.708 121.973,182.708 121.289,182.644 120.871 C 182.581 120.453,182.529 120.795,182.529 121.631 M185.954 120.809 C 185.853 121.185,185.783 121.866,185.798 122.322 C 185.819 122.984,185.874 122.900,186.069 121.907 C 186.336 120.548,186.249 119.708,185.954 120.809 M173.338 121.785 C 172.662 122.322,170.827 123.584,169.261 124.588 C 167.695 125.593,166.413 126.468,166.413 126.533 C 166.413 126.835,173.880 121.879,174.437 121.208 C 174.965 120.572,174.668 120.727,173.338 121.785 M214.513 121.371 C 214.133 121.677,212.640 122.752,211.196 123.760 C 208.679 125.516,207.515 126.417,208.431 125.902 C 210.811 124.563,215.933 120.749,215.273 120.808 C 215.235 120.811,214.893 121.065,214.513 121.371 M196.641 124.119 C 196.641 125.411,196.689 125.940,196.747 125.294 C 196.805 124.648,196.805 123.590,196.747 122.944 C 196.689 122.298,196.641 122.827,196.641 124.119 M193.138 124.780 C 193.027 125.676,192.993 126.464,193.061 126.533 C 193.245 126.717,193.575 124.270,193.448 123.668 C 193.388 123.384,193.248 123.884,193.138 124.780 M161.714 125.038 C 160.422 125.674,158.991 126.344,158.535 126.528 C 157.886 126.790,157.856 126.830,158.397 126.715 C 159.229 126.538,164.202 124.206,164.202 123.993 C 164.202 123.799,164.413 123.710,161.714 125.038 M181.969 126.054 C 181.969 126.738,182.023 127.018,182.089 126.676 C 182.155 126.334,182.155 125.774,182.089 125.432 C 182.023 125.090,181.969 125.370,181.969 126.054 M144.536 125.794 L 143.884 126.363 144.713 125.878 C 145.805 125.238,145.821 125.225,145.481 125.225 C 145.320 125.225,144.895 125.481,144.536 125.794 M185.401 125.785 C 185.301 126.161,185.230 126.842,185.245 127.298 C 185.266 127.959,185.321 127.875,185.516 126.883 C 185.784 125.524,185.696 124.684,185.401 125.785 M206.142 127.043 C 205.273 127.587,204.561 128.091,204.561 128.164 C 204.561 128.304,206.226 127.342,207.349 126.552 C 208.546 125.711,207.762 126.030,206.142 127.043 M165.238 127.041 C 164.205 127.602,164.268 127.835,165.308 127.298 C 165.764 127.062,166.137 126.810,166.137 126.738 C 166.137 126.560,166.107 126.570,165.238 127.041 M147.892 127.436 C 148.272 127.733,148.708 127.977,148.860 127.977 C 149.012 127.977,148.825 127.733,148.445 127.436 C 148.065 127.139,147.630 126.896,147.478 126.896 C 147.326 126.896,147.512 127.139,147.892 127.436 M196.326 127.408 C 196.432 128.284,197.229 128.800,197.712 128.305 C 198.000 128.009,197.967 127.960,197.527 128.035 C 197.179 128.095,196.859 127.884,196.618 127.436 L 196.245 126.745 196.326 127.408 M154.941 127.713 C 154.593 127.862,154.542 127.950,154.803 127.950 C 155.031 127.950,155.466 127.843,155.771 127.713 C 156.119 127.563,156.170 127.475,155.909 127.475 C 155.681 127.475,155.245 127.582,154.941 127.713 M150.317 128.374 C 151.012 128.520,152.072 128.516,152.936 128.364 C 154.296 128.124,154.222 128.109,151.770 128.118 C 149.534 128.126,149.321 128.163,150.317 128.374 M144.851 129.196 C 145.384 129.773,146.068 130.377,146.372 130.537 C 146.676 130.697,146.862 130.770,146.786 130.700 C 145.018 129.055,143.973 128.243,144.851 129.196 M160.885 129.233 C 159.896 129.750,159.212 130.174,159.364 130.174 C 159.516 130.174,160.449 129.750,161.437 129.233 C 162.426 128.716,163.110 128.292,162.958 128.292 C 162.806 128.292,161.873 128.716,160.885 129.233 M199.793 130.438 C 197.550 131.585,195.715 132.599,195.715 132.692 C 195.715 132.786,197.643 131.886,200.000 130.693 C 202.357 129.499,204.285 128.465,204.285 128.394 C 204.285 128.162,203.916 128.330,199.793 130.438 M192.719 129.267 C 192.694 129.591,192.609 130.275,192.529 130.788 C 192.396 131.642,192.408 131.663,192.680 131.039 C 192.843 130.665,192.929 129.980,192.870 129.519 C 192.807 129.023,192.745 128.920,192.719 129.267 M181.405 130.477 C 181.405 131.009,181.462 131.227,181.531 130.961 C 181.601 130.695,181.601 130.259,181.531 129.993 C 181.462 129.727,181.405 129.945,181.405 130.477 M184.844 130.723 C 184.741 131.234,184.672 131.916,184.688 132.239 C 184.705 132.562,184.829 132.267,184.963 131.583 C 185.098 130.898,185.168 130.216,185.119 130.067 C 185.070 129.917,184.946 130.212,184.844 130.723 M154.388 131.583 C 154.040 131.732,153.989 131.820,154.250 131.820 C 154.478 131.820,154.914 131.713,155.218 131.583 C 155.566 131.433,155.617 131.345,155.356 131.345 C 155.128 131.345,154.692 131.452,154.388 131.583 M151.002 132.057 C 151.420 132.120,152.104 132.120,152.522 132.057 C 152.941 131.994,152.598 131.942,151.762 131.942 C 150.926 131.942,150.584 131.994,151.002 132.057 M192.164 134.070 C 192.137 134.603,192.050 135.349,191.972 135.729 L 191.830 136.420 192.127 135.739 C 192.291 135.364,192.377 134.617,192.319 134.080 L 192.215 133.103 192.164 134.070 M195.518 134.485 C 195.520 135.245,195.574 135.524,195.637 135.103 C 195.701 134.683,195.699 134.061,195.633 133.721 C 195.568 133.381,195.516 133.725,195.518 134.485 M180.698 134.734 C 180.612 134.960,180.036 135.297,179.418 135.481 C 178.801 135.666,178.351 135.872,178.418 135.939 C 178.485 136.006,178.973 135.917,179.503 135.743 C 180.466 135.425,181.271 134.738,181.000 134.467 C 180.921 134.388,180.785 134.508,180.698 134.734 M184.243 135.729 C 184.137 136.358,184.108 136.930,184.179 137.001 C 184.250 137.072,184.391 136.611,184.492 135.978 C 184.593 135.344,184.622 134.772,184.556 134.706 C 184.490 134.640,184.349 135.100,184.243 135.729 M176.918 136.282 C 176.549 136.520,176.549 136.550,176.918 136.550 C 177.146 136.550,177.519 136.429,177.747 136.282 C 178.116 136.044,178.116 136.014,177.747 136.014 C 177.519 136.014,177.146 136.135,176.918 136.282 M171.804 138.337 C 169.988 139.212,170.342 139.239,172.252 138.371 C 173.070 138.000,173.614 137.690,173.462 137.684 C 173.310 137.677,172.564 137.971,171.804 138.337 M191.638 138.632 C 191.642 139.240,191.698 139.456,191.764 139.112 C 191.830 138.768,191.828 138.271,191.759 138.006 C 191.690 137.742,191.635 138.023,191.638 138.632 M194.965 139.461 C 194.967 140.221,195.021 140.499,195.084 140.079 C 195.148 139.659,195.146 139.037,195.081 138.697 C 195.015 138.357,194.963 138.701,194.965 139.461 M179.156 139.024 C 178.878 139.200,178.977 139.257,179.501 139.227 C 179.905 139.204,180.235 139.091,180.235 138.977 C 180.235 138.696,179.632 138.723,179.156 139.024 M168.901 139.599 C 168.369 139.891,168.058 140.129,168.210 140.129 C 168.362 140.129,168.922 139.891,169.454 139.599 C 169.986 139.308,170.297 139.069,170.145 139.069 C 169.993 139.069,169.433 139.308,168.901 139.599 M163.856 141.965 C 161.918 142.947,160.332 143.812,160.332 143.888 C 160.332 144.012,167.491 140.520,167.772 140.259 C 168.209 139.854,166.898 140.425,163.856 141.965 M172.495 141.949 C 172.115 142.166,171.928 142.344,172.080 142.344 C 172.232 142.344,172.668 142.166,173.048 141.949 C 173.428 141.732,173.614 141.554,173.462 141.554 C 173.310 141.554,172.875 141.732,172.495 141.949 M179.992 141.949 C 179.970 142.253,179.887 142.813,179.809 143.193 L 179.667 143.884 179.963 143.206 C 180.125 142.833,180.208 142.273,180.146 141.962 C 180.037 141.411,180.033 141.410,179.992 141.949 M191.080 142.640 C 191.080 143.172,191.137 143.390,191.206 143.124 C 191.276 142.858,191.276 142.422,191.206 142.156 C 191.137 141.890,191.080 142.108,191.080 142.640 M170.007 143.055 C 169.627 143.272,169.440 143.450,169.592 143.450 C 169.744 143.450,170.180 143.272,170.560 143.055 C 170.940 142.837,171.126 142.660,170.974 142.660 C 170.822 142.660,170.387 142.837,170.007 143.055 M194.403 143.884 C 194.406 144.492,194.462 144.708,194.529 144.364 C 194.595 144.021,194.592 143.523,194.523 143.259 C 194.454 142.994,194.400 143.276,194.403 143.884 M156.945 145.561 C 156.223 145.937,155.632 146.306,155.632 146.382 C 155.632 146.457,156.254 146.204,157.015 145.819 C 157.775 145.434,158.397 145.058,158.397 144.985 C 158.397 144.802,158.422 144.792,156.945 145.561 M190.527 146.234 C 190.527 146.766,190.584 146.983,190.654 146.717 C 190.723 146.451,190.723 146.016,190.654 145.750 C 190.584 145.484,190.527 145.701,190.527 146.234 M193.955 146.535 C 193.859 147.015,193.795 147.735,193.813 148.134 C 193.830 148.533,193.956 148.188,194.093 147.366 C 194.359 145.765,194.245 145.082,193.955 146.535 M162.751 146.668 C 161.717 147.229,161.780 147.462,162.820 146.925 C 163.276 146.689,163.649 146.437,163.649 146.365 C 163.649 146.187,163.619 146.197,162.751 146.668 M154.179 147.166 C 152.851 147.983,152.480 148.368,153.559 147.810 C 154.426 147.362,155.595 146.528,155.356 146.527 C 155.280 146.527,154.750 146.815,154.179 147.166 M178.890 149.827 C 178.866 150.207,178.781 150.829,178.703 151.209 L 178.561 151.900 178.858 151.220 C 179.021 150.846,179.105 150.224,179.045 149.838 L 178.936 149.136 178.890 149.827 M148.791 150.537 C 148.144 150.924,147.616 151.306,147.616 151.386 C 147.616 151.535,149.481 150.476,149.952 150.059 C 150.427 149.639,149.984 149.821,148.791 150.537 M193.404 150.438 C 193.311 150.786,193.246 151.320,193.259 151.624 C 193.272 151.928,193.397 151.692,193.536 151.099 C 193.805 149.950,193.690 149.371,193.404 150.438 M146.026 152.343 C 145.380 152.800,144.851 153.236,144.851 153.311 C 144.851 153.386,145.411 153.062,146.095 152.592 C 146.780 152.121,147.339 151.679,147.339 151.611 C 147.339 151.420,147.287 151.450,146.026 152.343 M152.241 153.016 C 151.674 153.402,151.209 153.777,151.209 153.849 C 151.209 153.922,151.707 153.652,152.315 153.250 C 153.281 152.611,153.607 152.315,153.347 152.315 C 153.306 152.315,152.809 152.631,152.241 153.016 M178.364 153.974 C 178.364 154.506,178.421 154.724,178.490 154.457 C 178.560 154.191,178.560 153.756,178.490 153.490 C 178.421 153.224,178.364 153.442,178.364 153.974 M192.847 153.846 C 192.752 154.093,192.687 154.565,192.703 154.895 C 192.721 155.274,192.815 155.139,192.958 154.528 C 193.200 153.501,193.134 153.098,192.847 153.846 M148.030 156.071 L 147.201 156.784 148.100 156.189 C 148.594 155.862,148.998 155.541,148.998 155.475 C 148.998 155.268,148.881 155.340,148.030 156.071 M192.260 157.291 C 192.155 157.769,192.127 158.217,192.197 158.288 C 192.267 158.358,192.405 158.019,192.502 157.533 C 192.599 157.047,192.627 156.599,192.565 156.536 C 192.502 156.473,192.365 156.813,192.260 157.291 M177.811 157.844 C 177.811 158.376,177.868 158.594,177.938 158.328 C 178.007 158.062,178.007 157.626,177.938 157.360 C 177.868 157.094,177.811 157.312,177.811 157.844 M137.649 158.880 L 136.697 159.917 137.733 158.964 C 138.698 158.078,138.897 157.844,138.686 157.844 C 138.640 157.844,138.173 158.310,137.649 158.880 M191.727 160.213 C 191.625 160.618,191.595 161.003,191.660 161.068 C 191.725 161.133,191.862 160.855,191.964 160.450 C 192.065 160.045,192.095 159.660,192.030 159.595 C 191.965 159.530,191.828 159.808,191.727 160.213 M135.297 160.954 L 134.485 161.852 135.384 161.040 C 135.878 160.594,136.282 160.189,136.282 160.142 C 136.282 159.928,136.054 160.116,135.297 160.954 M187.857 161.043 C 187.755 161.448,187.725 161.832,187.790 161.898 C 187.855 161.963,187.992 161.685,188.094 161.279 C 188.195 160.874,188.225 160.490,188.160 160.424 C 188.095 160.359,187.958 160.637,187.857 161.043 M131.990 163.994 L 130.062 165.999 132.066 164.071 C 133.928 162.281,134.197 161.990,133.994 161.990 C 133.952 161.990,133.050 162.892,131.990 163.994 M191.174 162.978 C 191.072 163.383,191.042 163.767,191.107 163.833 C 191.173 163.898,191.309 163.620,191.411 163.215 C 191.512 162.809,191.542 162.425,191.477 162.359 C 191.412 162.294,191.276 162.572,191.174 162.978 M138.070 164.271 L 136.420 165.999 138.148 164.349 C 139.098 163.441,139.876 162.664,139.876 162.621 C 139.876 162.417,139.603 162.666,138.070 164.271 M176.705 165.308 C 176.705 165.840,176.762 166.057,176.832 165.791 C 176.901 165.525,176.901 165.090,176.832 164.824 C 176.762 164.558,176.705 164.775,176.705 165.308 M128.391 167.865 L 127.298 169.039 128.473 167.947 C 129.565 166.930,129.775 166.690,129.565 166.690 C 129.520 166.690,128.992 167.218,128.391 167.865 M133.645 168.694 L 132.274 170.145 133.725 168.773 C 134.523 168.019,135.176 167.366,135.176 167.322 C 135.176 167.116,134.920 167.345,133.645 168.694 M130.564 172.149 C 129.027 174.037,128.735 174.430,128.873 174.430 C 128.940 174.430,129.643 173.621,130.435 172.633 C 131.227 171.645,131.821 170.836,131.755 170.836 C 131.688 170.836,131.153 171.427,130.564 172.149 M123.903 173.393 C 122.894 174.883,122.676 175.259,122.819 175.259 C 122.883 175.259,123.389 174.575,123.944 173.739 C 124.500 172.903,124.896 172.218,124.826 172.218 C 124.756 172.218,124.340 172.747,123.903 173.393 M127.826 175.681 C 127.417 176.218,127.131 176.701,127.190 176.757 C 127.249 176.812,127.639 176.373,128.055 175.781 C 129.001 174.439,128.830 174.365,127.826 175.681 M121.493 177.194 C 121.257 177.650,121.126 178.023,121.202 178.023 C 121.278 178.023,121.533 177.650,121.769 177.194 C 122.005 176.738,122.136 176.365,122.060 176.365 C 121.984 176.365,121.729 176.738,121.493 177.194 M120.235 179.432 C 119.917 180.055,119.705 180.612,119.763 180.670 C 119.821 180.728,120.139 180.219,120.469 179.538 C 121.223 177.987,121.019 177.896,120.235 179.432 M119.188 181.767 C 118.725 182.784,118.813 183.001,119.314 182.076 C 119.548 181.645,119.687 181.240,119.624 181.177 C 119.561 181.114,119.365 181.379,119.188 181.767 M123.887 182.596 C 123.424 183.613,123.513 183.830,124.013 182.906 C 124.247 182.474,124.387 182.069,124.324 182.006 C 124.260 181.943,124.064 182.209,123.887 182.596 M117.623 186.317 C 117.518 186.794,117.489 187.243,117.560 187.313 C 117.630 187.384,117.767 187.044,117.865 186.558 C 118.095 185.406,117.872 185.183,117.623 186.317 M122.080 187.571 C 121.985 187.818,121.918 188.228,121.931 188.481 C 121.944 188.735,122.065 188.576,122.198 188.127 C 122.459 187.255,122.367 186.823,122.080 187.571 M117.106 188.553 C 117.010 189.033,116.947 189.877,116.967 190.428 C 116.990 191.106,117.076 190.852,117.233 189.646 C 117.477 187.756,117.400 187.086,117.106 188.553 M169.370 189.223 C 169.117 189.753,168.967 190.187,169.037 190.187 C 169.226 190.187,170.065 188.494,169.939 188.368 C 169.879 188.308,169.623 188.692,169.370 189.223 M121.532 190.245 C 121.438 190.593,121.376 191.313,121.393 191.845 C 121.416 192.584,121.476 192.453,121.644 191.293 C 121.875 189.697,121.819 189.173,121.532 190.245 M175.797 193.711 L 174.845 194.748 175.881 193.795 C 176.846 192.908,177.045 192.674,176.834 192.674 C 176.788 192.674,176.321 193.141,175.797 193.711 M116.967 195.062 C 116.876 198.021,119.107 203.019,121.831 205.962 C 123.368 207.622,126.782 210.283,127.042 210.023 C 127.116 209.949,126.357 209.355,125.356 208.703 C 121.093 205.926,117.897 200.782,117.223 195.616 C 117.034 194.164,116.997 194.084,116.967 195.062 M121.374 196.429 C 121.385 196.873,121.504 197.484,121.638 197.789 C 121.802 198.158,121.828 197.928,121.719 197.097 C 121.525 195.632,121.346 195.287,121.374 196.429 M164.479 196.682 C 164.123 197.061,163.883 197.418,163.947 197.475 C 164.011 197.531,164.353 197.221,164.707 196.785 C 165.498 195.809,165.359 195.746,164.479 196.682 M161.437 199.929 C 160.297 201.018,159.737 201.644,160.194 201.322 C 161.007 200.746,163.889 197.916,163.639 197.938 C 163.568 197.945,162.578 198.841,161.437 199.929 M174.691 199.516 L 173.739 200.553 174.775 199.600 C 175.740 198.714,175.939 198.480,175.728 198.480 C 175.682 198.480,175.215 198.946,174.691 199.516 M168.830 199.562 C 167.694 200.290,167.537 200.546,168.538 200.037 C 169.023 199.791,169.496 199.464,169.591 199.311 C 169.813 198.952,169.746 198.974,168.830 199.562 M166.164 200.247 C 165.620 200.826,165.790 201.683,166.340 201.133 C 166.431 201.042,166.339 200.968,166.135 200.968 C 165.899 200.968,166.000 200.716,166.413 200.276 C 166.770 199.896,167.000 199.585,166.924 199.585 C 166.848 199.585,166.506 199.883,166.164 200.247 M123.401 202.488 C 123.619 202.944,124.436 204.001,125.218 204.838 L 126.640 206.358 125.172 204.539 C 124.365 203.539,123.547 202.482,123.355 202.190 C 123.163 201.898,123.183 202.032,123.401 202.488 M168.550 204.123 C 166.529 205.500,165.487 206.317,166.413 205.801 C 167.340 205.283,170.836 202.877,170.836 202.756 C 170.836 202.563,170.864 202.546,168.550 204.123 M152.315 205.943 C 151.479 206.385,150.892 206.752,151.011 206.760 C 151.305 206.777,153.974 205.415,153.974 205.248 C 153.974 205.063,154.012 205.047,152.315 205.943 M127.298 206.656 C 128.104 207.326,132.268 209.263,132.867 209.246 C 133.149 209.238,132.621 208.950,131.693 208.605 C 130.766 208.260,129.273 207.577,128.376 207.087 C 127.479 206.597,126.994 206.403,127.298 206.656 M149.136 207.345 C 148.528 207.638,148.341 207.800,148.721 207.705 C 149.504 207.510,150.941 206.790,150.518 206.804 C 150.366 206.809,149.744 207.053,149.136 207.345 M145.957 208.431 C 145.388 208.614,145.363 208.657,145.819 208.676 C 146.123 208.689,146.558 208.579,146.786 208.431 C 147.271 208.118,146.935 208.118,145.957 208.431 M143.746 208.984 L 143.055 209.205 143.746 209.229 C 144.126 209.242,144.623 209.131,144.851 208.984 C 145.379 208.643,144.811 208.643,143.746 208.984 M134.287 209.587 C 134.933 209.842,141.593 209.856,141.991 209.602 C 142.166 209.490,140.398 209.399,138.061 209.399 C 135.725 209.399,134.026 209.483,134.287 209.587 M128.361 210.675 C 128.945 210.983,129.487 211.172,129.565 211.094 C 129.700 210.959,127.837 210.076,127.471 210.102 C 127.376 210.109,127.776 210.367,128.361 210.675 M153.697 210.919 C 153.148 211.274,153.838 211.274,154.665 210.919 L 155.218 210.682 154.665 210.666 C 154.361 210.658,153.925 210.772,153.697 210.919 M151.762 211.485 C 151.459 211.690,151.571 211.715,152.177 211.580 C 153.193 211.352,153.414 211.194,152.707 211.200 C 152.415 211.202,151.990 211.330,151.762 211.485 M132.135 212.025 C 133.081 212.328,133.807 212.328,133.103 212.025 C 132.799 211.894,132.301 211.791,131.997 211.795 C 131.553 211.802,131.580 211.847,132.135 212.025 M149.413 212.038 C 149.027 212.212,149.195 212.237,149.965 212.120 C 150.574 212.027,151.123 211.906,151.186 211.850 C 151.424 211.641,149.943 211.797,149.413 212.038 M133.817 212.404 C 133.880 212.461,134.554 212.579,135.314 212.667 C 136.247 212.774,136.472 212.750,136.006 212.591 C 135.315 212.357,133.599 212.210,133.817 212.404 M145.957 212.587 C 145.511 212.736,145.805 212.762,146.786 212.660 C 147.623 212.574,148.359 212.458,148.422 212.402 C 148.643 212.208,146.642 212.358,145.957 212.587 M138.977 213.059 C 140.079 213.112,141.883 213.112,142.985 213.059 C 144.088 213.007,143.186 212.964,140.981 212.964 C 138.777 212.964,137.875 213.007,138.977 213.059 M173.797 237.353 C 173.689 237.461,173.601 242.695,173.601 248.984 C 173.601 258.054,173.522 260.603,173.222 261.308 C 171.791 264.666,166.810 264.624,165.100 261.238 C 164.758 260.561,164.478 260.223,164.478 260.486 C 164.478 263.209,169.393 265.096,171.970 263.363 C 173.855 262.095,173.849 262.141,173.864 249.136 L 173.877 237.457 175.413 237.457 L 176.949 237.457 176.864 249.762 C 176.818 256.529,176.874 261.700,176.990 261.252 C 177.106 260.805,177.168 255.236,177.128 248.878 L 177.056 237.319 175.525 237.237 C 174.682 237.193,173.905 237.245,173.797 237.353 M190.037 237.526 C 189.964 237.716,189.938 244.340,189.979 252.246 L 190.053 266.621 190.120 252.044 L 190.187 237.468 195.923 237.387 L 201.659 237.307 195.914 237.244 C 191.526 237.195,190.138 237.262,190.037 237.526 M202.350 237.733 C 202.730 237.855,203.290 237.958,203.594 237.963 L 204.147 237.971 203.594 237.733 C 203.290 237.603,202.730 237.499,202.350 237.504 L 201.659 237.512 202.350 237.733 M204.285 238.135 C 204.285 238.204,204.723 238.468,205.260 238.723 C 211.584 241.724,209.723 253.766,202.935 253.766 C 201.051 253.766,201.435 254.892,205.252 260.544 C 209.198 266.388,209.207 266.413,207.395 266.556 L 206.082 266.659 207.326 266.705 C 209.716 266.792,209.704 266.749,205.687 260.708 C 201.608 254.574,201.629 254.656,203.939 253.814 C 209.327 251.849,211.266 245.863,208.121 240.904 C 207.262 239.549,204.285 237.400,204.285 238.135 M193.412 240.129 C 193.310 240.230,193.231 240.510,193.236 240.751 C 193.243 241.122,193.287 241.115,193.526 240.705 C 193.908 240.050,200.131 240.003,202.273 240.639 C 206.754 241.969,207.359 249.084,203.179 251.295 C 202.647 251.577,202.401 251.812,202.632 251.819 C 202.864 251.826,203.533 251.436,204.119 250.953 C 207.430 248.224,206.834 242.360,203.068 240.607 C 201.667 239.954,193.967 239.573,193.412 240.129 M193.275 251.693 C 193.379 252.280,200.709 252.710,201.651 252.185 C 201.863 252.066,200.217 252.013,197.993 252.066 C 194.320 252.153,193.915 252.115,193.564 251.651 C 193.193 251.160,193.181 251.162,193.275 251.693 M193.422 254.493 C 193.315 254.600,193.231 254.885,193.236 255.126 C 193.243 255.496,193.287 255.489,193.526 255.079 C 193.754 254.688,194.196 254.596,195.844 254.596 L 197.880 254.596 199.919 257.706 C 201.040 259.416,202.681 261.962,203.566 263.364 C 204.451 264.766,205.365 266.070,205.597 266.262 C 206.124 266.700,205.140 265.116,201.185 259.157 L 198.065 254.457 195.841 254.378 C 194.617 254.334,193.529 254.386,193.422 254.493 M161.164 258.601 C 160.464 259.444,161.745 263.141,163.262 264.658 C 166.721 268.116,174.161 267.388,176.251 263.386 C 176.875 262.193,176.703 262.166,175.924 263.334 C 171.904 269.365,161.161 266.398,161.161 259.257 C 161.161 258.157,164.175 258.280,164.234 259.383 C 164.260 259.870,164.291 259.891,164.395 259.489 C 164.698 258.319,162.011 257.580,161.164 258.601 M191.707 266.482 L 190.325 266.672 191.622 266.715 C 192.335 266.739,192.995 266.634,193.089 266.482 C 193.183 266.330,193.222 266.225,193.175 266.249 C 193.128 266.273,192.467 266.378,191.707 266.482 " stroke="none" fill="#747474" fill-rule="evenodd"></path><path id="path4" d="M211.610 42.828 C 208.917 43.285,207.865 45.070,209.389 46.595 C 210.061 47.267,210.137 47.276,214.600 47.248 C 232.641 47.135,243.704 54.055,248.442 68.417 C 252.109 79.536,249.127 90.774,241.078 96.166 C 238.196 98.097,233.422 99.209,232.742 98.109 C 232.615 97.903,232.436 97.810,232.345 97.902 C 231.461 98.785,233.943 99.164,236.564 98.547 C 249.554 95.484,254.470 76.655,246.044 62.229 C 239.667 51.309,230.120 46.717,213.797 46.717 C 209.615 46.717,208.984 46.512,208.984 45.154 C 208.984 41.402,225.901 42.492,235.131 46.839 C 245.573 51.756,252.133 60.698,253.904 72.426 C 254.147 74.036,254.268 74.428,254.289 73.670 C 254.546 64.253,246.276 51.964,236.351 47.015 C 229.368 43.532,218.394 41.675,211.610 42.828 M254.412 76.849 C 254.412 77.989,254.461 78.455,254.521 77.885 C 254.580 77.315,254.580 76.382,254.521 75.812 C 254.461 75.242,254.412 75.708,254.412 76.849 M193.089 75.324 C 192.937 75.378,192.364 75.496,191.816 75.587 C 185.033 76.716,183.968 87.208,190.306 90.458 C 194.750 92.736,201.618 89.157,201.502 84.624 C 201.488 84.109,201.381 84.276,201.133 85.199 C 198.636 94.475,184.330 91.188,186.323 81.796 C 188.011 73.839,199.348 73.805,201.220 81.751 C 201.431 82.650,201.469 82.688,201.493 82.029 C 201.611 78.779,196.001 74.303,193.089 75.324 M253.950 80.995 C 252.577 93.685,242.664 103.756,233.021 102.260 C 231.940 102.092,231.028 101.997,230.993 102.049 C 230.959 102.100,230.234 103.324,229.382 104.768 C 222.923 115.718,212.906 124.482,199.272 131.113 C 195.945 132.731,195.693 132.968,195.747 134.439 C 195.767 134.972,195.825 135.098,195.896 134.762 C 195.961 134.457,196.073 133.928,196.146 133.586 C 196.249 133.105,197.172 132.516,200.199 130.999 C 213.854 124.159,225.202 113.946,230.267 103.939 C 231.077 102.340,231.114 102.322,232.979 102.625 C 241.097 103.947,250.134 96.672,253.171 86.370 C 253.909 83.867,254.385 81.046,254.268 79.864 C 254.205 79.229,254.101 79.598,253.950 80.995 M191.959 79.859 C 190.779 80.579,189.908 81.760,189.922 82.622 C 189.933 83.233,189.995 83.173,190.327 82.239 C 191.309 79.469,194.853 78.900,196.751 81.208 C 197.092 81.623,197.372 81.824,197.373 81.655 C 197.380 79.982,193.738 78.774,191.959 79.859 M197.391 83.385 C 197.344 87.238,192.057 88.324,190.461 84.808 C 190.082 83.973,189.921 83.799,189.916 84.222 C 189.903 85.544,192.136 87.353,193.780 87.353 C 196.143 87.353,198.448 84.565,197.678 82.637 C 197.449 82.064,197.406 82.175,197.391 83.385 M228.611 93.742 C 227.671 94.121,226.674 95.095,226.683 95.625 C 226.688 95.905,226.855 95.796,227.149 95.322 C 228.291 93.481,230.727 93.501,232.010 95.362 C 232.321 95.813,232.481 95.901,232.481 95.621 C 232.481 94.407,229.977 93.191,228.611 93.742 M226.695 97.755 C 226.685 97.926,226.857 98.500,227.078 99.030 C 228.103 101.482,221.150 110.856,213.674 117.099 C 206.298 123.260,197.216 128.768,196.746 127.367 C 196.678 127.165,196.642 127.192,196.659 127.433 C 196.716 128.211,197.651 128.026,200.205 126.731 C 210.758 121.383,222.097 110.863,226.651 102.196 L 227.841 99.931 227.278 98.687 C 226.968 98.003,226.706 97.583,226.695 97.755 M185.012 101.870 C 184.684 102.100,183.912 103.352,183.297 104.651 C 178.918 113.910,167.873 122.983,156.240 126.880 C 151.797 128.368,149.168 128.096,147.078 125.934 C 145.677 124.485,144.005 124.796,143.614 126.578 C 143.026 129.255,146.739 132.131,151.077 132.358 C 158.528 132.749,173.149 124.414,181.193 115.189 C 182.789 113.359,182.926 113.309,183.076 114.513 C 183.162 115.208,183.197 115.117,183.232 114.107 C 183.288 112.434,182.947 112.544,181.161 114.774 C 174.961 122.515,160.073 131.482,152.465 132.058 C 147.310 132.447,141.948 128.380,144.393 125.934 C 145.346 124.982,145.763 125.036,147.138 126.291 C 149.551 128.493,151.887 128.687,156.608 127.076 C 168.105 123.152,178.309 114.841,183.254 105.372 C 185.682 100.724,186.423 100.672,188.990 104.975 C 189.874 106.458,191.410 108.542,192.403 109.606 C 197.656 115.237,197.368 114.821,197.425 116.878 C 197.476 118.711,197.477 118.714,197.580 117.223 C 197.735 114.965,197.622 114.759,194.337 111.306 C 191.619 108.448,189.691 105.880,188.527 103.570 C 187.541 101.610,186.265 100.993,185.012 101.870 M187.565 110.291 C 187.473 110.439,187.347 111.216,187.285 112.018 L 187.172 113.476 187.474 112.025 C 187.854 110.202,187.726 110.151,190.187 113.104 C 193.728 117.354,193.521 116.848,193.213 120.525 C 192.895 124.322,192.664 128.349,192.809 127.574 C 192.933 126.914,193.417 122.056,193.652 119.115 L 193.820 117.015 191.277 114.011 C 189.879 112.360,188.597 110.786,188.427 110.515 C 188.081 109.961,187.812 109.891,187.565 110.291 M186.786 116.074 C 186.674 117.198,186.636 118.173,186.703 118.239 C 186.885 118.422,187.212 115.469,187.094 114.700 C 187.038 114.331,186.899 114.949,186.786 116.074 M182.585 117.761 C 182.477 118.692,182.450 119.516,182.526 119.592 C 182.602 119.668,182.753 118.968,182.861 118.037 C 182.969 117.106,182.995 116.283,182.919 116.207 C 182.843 116.131,182.693 116.830,182.585 117.761 M186.366 119.726 C 186.339 120.275,186.256 121.333,186.183 122.076 L 186.049 123.428 186.332 122.322 C 186.488 121.714,186.571 120.657,186.516 119.972 C 186.428 118.875,186.410 118.846,186.366 119.726 M196.959 121.961 C 196.852 123.379,196.815 124.849,196.876 125.227 C 196.937 125.606,197.088 124.510,197.212 122.791 C 197.335 121.072,197.372 119.602,197.294 119.524 C 197.216 119.446,197.065 120.542,196.959 121.961 M182.043 122.408 C 181.929 123.368,181.900 124.218,181.980 124.297 C 182.174 124.491,182.539 121.491,182.378 121.028 C 182.308 120.828,182.157 121.449,182.043 122.408 M185.810 124.672 C 185.781 125.356,185.699 126.413,185.627 127.021 L 185.496 128.127 185.779 127.021 C 185.935 126.413,186.018 125.356,185.963 124.672 L 185.863 123.428 185.810 124.672 M181.507 127.120 C 181.397 128.086,181.366 128.936,181.439 129.009 C 181.622 129.192,181.981 126.178,181.830 125.728 C 181.762 125.527,181.617 126.153,181.507 127.120 M185.125 130.339 C 184.903 132.527,184.536 135.650,184.118 138.908 C 183.802 141.373,183.510 144.941,183.677 144.299 C 183.737 144.070,183.928 142.702,184.102 141.258 C 184.276 139.813,184.525 137.823,184.656 136.835 C 185.289 132.049,185.546 129.460,185.439 128.956 C 185.375 128.652,185.233 129.274,185.125 130.339 M192.310 129.512 C 192.210 130.119,192.142 131.175,192.161 131.859 C 192.186 132.829,192.246 132.646,192.434 131.030 C 192.694 128.786,192.606 127.716,192.310 129.512 M180.951 131.817 C 180.840 132.934,180.809 133.907,180.882 133.981 C 181.065 134.163,181.431 130.608,181.277 130.152 C 181.208 129.951,181.062 130.700,180.951 131.817 M191.764 134.312 C 191.657 134.826,191.583 135.696,191.601 136.247 C 191.628 137.093,191.673 137.012,191.885 135.731 C 192.167 134.030,192.067 132.862,191.764 134.312 M180.511 134.547 C 180.511 134.708,180.173 134.925,179.759 135.029 C 174.782 136.278,160.489 142.907,153.836 147.051 C 142.763 153.949,139.255 156.619,132.041 163.641 C 119.809 175.547,114.511 187.754,117.100 198.065 C 118.407 203.269,122.861 208.669,127.574 210.764 C 128.182 211.035,129.014 211.415,129.422 211.610 C 129.830 211.805,130.826 212.120,131.634 212.309 C 132.442 212.499,133.538 212.773,134.070 212.918 C 137.103 213.746,147.796 213.355,150.933 212.302 C 151.313 212.174,151.981 211.991,152.417 211.896 C 152.853 211.800,153.147 211.658,153.069 211.581 C 152.992 211.504,152.200 211.626,151.309 211.853 C 136.846 215.526,123.713 211.505,118.921 201.935 C 111.224 186.564,124.490 165.361,152.592 148.122 C 160.543 143.244,171.619 137.935,178.438 135.733 C 180.458 135.080,181.018 134.761,180.700 134.444 C 180.596 134.340,180.511 134.386,180.511 134.547 M195.328 137.901 C 195.218 138.867,195.188 139.717,195.261 139.790 C 195.444 139.973,195.803 136.959,195.651 136.509 C 195.584 136.308,195.438 136.934,195.328 137.901 M191.143 139.450 C 191.037 140.306,191.011 141.069,191.087 141.145 C 191.163 141.221,191.313 140.583,191.420 139.727 C 191.527 138.871,191.552 138.108,191.476 138.032 C 191.400 137.956,191.250 138.594,191.143 139.450 M176.365 140.557 C 169.788 143.328,167.430 144.451,162.467 147.177 C 138.940 160.096,122.633 177.820,121.781 191.397 L 121.658 193.366 122.017 191.154 C 123.371 182.837,127.020 176.386,135.448 167.417 C 140.008 162.564,147.825 156.407,155.505 151.622 C 162.402 147.323,167.397 144.731,175.674 141.155 L 179.820 139.364 179.988 140.380 L 180.157 141.396 180.196 140.376 C 180.251 138.937,180.204 138.939,176.365 140.557 M194.796 142.472 C 194.686 143.367,194.652 144.156,194.720 144.225 C 194.904 144.408,195.234 141.961,195.106 141.359 C 195.046 141.075,194.907 141.576,194.796 142.472 M179.580 142.388 C 179.484 142.869,179.421 143.713,179.441 144.264 C 179.464 144.941,179.551 144.688,179.707 143.482 C 179.951 141.591,179.874 140.921,179.580 142.388 M190.658 142.882 C 190.551 143.395,190.477 144.141,190.493 144.540 C 190.513 145.019,190.608 144.842,190.772 144.022 C 190.908 143.338,190.983 142.592,190.937 142.364 C 190.891 142.135,190.765 142.369,190.658 142.882 M183.131 146.329 C 183.026 147.168,182.996 148.018,183.063 148.218 C 183.131 148.419,183.276 147.793,183.386 146.827 C 183.496 145.860,183.527 145.010,183.454 144.937 C 183.381 144.864,183.236 145.491,183.131 146.329 M194.380 145.715 C 194.354 146.114,194.268 146.861,194.188 147.374 C 194.054 148.228,194.067 148.250,194.339 147.625 C 194.502 147.250,194.589 146.504,194.531 145.967 C 194.455 145.261,194.413 145.191,194.380 145.715 M179.039 146.203 C 178.936 146.714,178.868 147.583,178.887 148.134 C 178.912 148.893,178.979 148.734,179.162 147.478 C 179.427 145.660,179.336 144.717,179.039 146.203 M190.036 147.189 C 189.930 147.894,189.906 148.533,189.982 148.609 C 190.058 148.685,190.207 148.170,190.312 147.465 C 190.418 146.760,190.442 146.121,190.366 146.045 C 190.290 145.969,190.142 146.483,190.036 147.189 M182.585 150.657 C 182.477 151.587,182.447 152.408,182.519 152.480 C 182.591 152.551,182.736 151.847,182.841 150.913 C 182.947 149.980,182.977 149.159,182.907 149.090 C 182.838 149.021,182.693 149.726,182.585 150.657 M193.824 149.447 C 193.800 149.770,193.715 150.454,193.635 150.968 C 193.501 151.822,193.514 151.843,193.786 151.219 C 193.949 150.844,194.035 150.160,193.976 149.699 C 193.913 149.203,193.851 149.100,193.824 149.447 M178.475 150.405 C 178.379 150.885,178.315 151.667,178.334 152.142 C 178.354 152.657,178.464 152.343,178.606 151.367 C 178.861 149.623,178.767 148.941,178.475 150.405 M189.496 150.657 C 189.389 151.285,189.365 151.862,189.441 151.938 C 189.517 152.014,189.666 151.562,189.772 150.933 C 189.878 150.304,189.903 149.728,189.827 149.652 C 189.751 149.576,189.602 150.028,189.496 150.657 M193.265 153.144 C 193.240 153.525,193.156 154.147,193.078 154.527 L 192.935 155.218 193.232 154.537 C 193.396 154.163,193.480 153.541,193.420 153.155 L 193.310 152.453 193.265 153.144 M188.943 153.974 C 188.836 154.602,188.812 155.179,188.888 155.255 C 188.964 155.331,189.113 154.879,189.219 154.250 C 189.325 153.622,189.350 153.045,189.274 152.969 C 189.198 152.893,189.049 153.345,188.943 153.974 M177.942 154.216 C 177.835 154.729,177.761 155.475,177.777 155.874 C 177.797 156.353,177.892 156.176,178.056 155.356 C 178.193 154.672,178.267 153.925,178.221 153.697 C 178.175 153.469,178.049 153.702,177.942 154.216 M182.019 154.652 C 181.913 155.357,181.889 155.997,181.965 156.073 C 182.041 156.149,182.190 155.634,182.296 154.929 C 182.401 154.224,182.426 153.584,182.350 153.508 C 182.274 153.432,182.125 153.947,182.019 154.652 M188.566 156.185 C 188.541 156.565,188.456 157.187,188.378 157.567 L 188.236 158.258 188.533 157.578 C 188.696 157.204,188.781 156.582,188.720 156.196 L 188.611 155.494 188.566 156.185 M192.719 156.082 C 192.694 156.405,192.609 157.089,192.529 157.602 C 192.396 158.456,192.408 158.477,192.680 157.853 C 192.843 157.479,192.929 156.795,192.870 156.333 C 192.807 155.837,192.745 155.734,192.719 156.082 M181.507 158.148 C 181.405 158.781,181.376 159.354,181.442 159.420 C 181.508 159.486,181.649 159.025,181.755 158.397 C 181.862 157.768,181.890 157.196,181.820 157.125 C 181.749 157.054,181.608 157.514,181.507 158.148 M177.389 158.362 C 177.282 158.875,177.208 159.622,177.224 160.021 C 177.244 160.499,177.339 160.322,177.503 159.502 C 177.640 158.818,177.714 158.072,177.668 157.844 C 177.622 157.616,177.497 157.849,177.389 158.362 M187.766 160.221 C 187.577 161.136,187.432 162.127,187.444 162.422 C 187.456 162.717,187.644 162.149,187.861 161.161 C 188.078 160.173,188.223 159.182,188.183 158.960 C 188.143 158.738,187.955 159.305,187.766 160.221 M192.159 159.226 C 192.134 159.606,192.050 160.228,191.972 160.608 L 191.830 161.299 192.127 160.619 C 192.290 160.245,192.374 159.623,192.314 159.237 L 192.204 158.535 192.159 159.226 M180.926 161.714 C 180.820 162.343,180.795 162.919,180.871 162.995 C 180.947 163.071,181.096 162.619,181.202 161.990 C 181.309 161.362,181.333 160.785,181.257 160.709 C 181.181 160.633,181.032 161.085,180.926 161.714 M176.767 162.669 C 176.661 163.374,176.637 164.013,176.713 164.089 C 176.789 164.165,176.938 163.650,177.043 162.945 C 177.149 162.240,177.173 161.601,177.097 161.525 C 177.021 161.449,176.873 161.964,176.767 162.669 M191.606 161.990 C 191.582 162.370,191.497 162.992,191.419 163.372 L 191.277 164.064 191.574 163.383 C 191.737 163.009,191.821 162.387,191.761 162.001 L 191.652 161.299 191.606 161.990 M187.046 163.707 C 186.953 164.055,186.889 164.651,186.903 165.031 C 186.919 165.438,187.029 165.218,187.171 164.496 C 187.424 163.201,187.335 162.631,187.046 163.707 M180.389 164.908 C 180.284 165.463,180.262 165.979,180.338 166.055 C 180.414 166.131,180.561 165.739,180.665 165.185 C 180.769 164.630,180.792 164.114,180.716 164.038 C 180.640 163.962,180.493 164.353,180.389 164.908 M176.214 166.539 C 176.108 167.244,176.084 167.883,176.160 167.959 C 176.236 168.035,176.385 167.520,176.491 166.815 C 176.596 166.110,176.621 165.471,176.545 165.395 C 176.469 165.319,176.320 165.834,176.214 166.539 M186.489 166.286 C 186.394 166.533,186.329 167.005,186.345 167.334 C 186.363 167.713,186.457 167.578,186.600 166.968 C 186.842 165.941,186.776 165.538,186.489 166.286 M190.226 168.250 C 190.030 169.093,189.921 169.833,189.984 169.896 C 190.046 169.959,190.262 169.324,190.463 168.487 C 190.664 167.649,190.773 166.908,190.705 166.840 C 190.638 166.772,190.422 167.407,190.226 168.250 M179.992 167.381 C 179.970 167.685,179.887 168.245,179.809 168.625 L 179.667 169.316 179.963 168.638 C 180.125 168.265,180.208 167.705,180.146 167.394 C 180.037 166.843,180.033 166.842,179.992 167.381 M185.902 168.901 C 185.797 169.379,185.769 169.828,185.839 169.898 C 185.910 169.968,186.047 169.629,186.144 169.143 C 186.241 168.657,186.269 168.209,186.207 168.146 C 186.144 168.084,186.007 168.423,185.902 168.901 M175.689 170.437 C 175.585 170.992,175.555 171.501,175.623 171.568 C 175.690 171.636,175.831 171.237,175.935 170.683 C 176.039 170.128,176.069 169.619,176.001 169.551 C 175.934 169.484,175.793 169.882,175.689 170.437 M179.440 170.283 C 179.417 170.511,179.329 171.009,179.245 171.389 C 179.112 171.986,179.134 172.013,179.405 171.588 C 179.577 171.318,179.665 170.820,179.600 170.483 C 179.534 170.145,179.462 170.055,179.440 170.283 M189.496 171.113 C 189.391 171.591,189.362 172.039,189.433 172.110 C 189.503 172.180,189.640 171.840,189.737 171.355 C 189.835 170.869,189.863 170.420,189.800 170.358 C 189.738 170.295,189.600 170.635,189.496 171.113 M185.383 170.985 C 185.288 171.232,185.221 171.642,185.235 171.895 C 185.248 172.149,185.368 171.990,185.502 171.541 C 185.762 170.669,185.670 170.237,185.383 170.985 M175.141 172.929 C 175.039 173.334,175.018 173.728,175.094 173.804 C 175.170 173.880,175.315 173.611,175.417 173.206 C 175.519 172.801,175.540 172.407,175.464 172.331 C 175.388 172.255,175.242 172.524,175.141 172.929 M188.962 173.206 C 188.861 173.611,188.831 173.996,188.896 174.061 C 188.961 174.126,189.098 173.848,189.199 173.443 C 189.301 173.037,189.331 172.653,189.266 172.588 C 189.201 172.522,189.064 172.801,188.962 173.206 M178.887 173.048 C 178.864 173.276,178.776 173.773,178.692 174.153 C 178.559 174.751,178.581 174.778,178.852 174.353 C 179.024 174.082,179.112 173.585,179.047 173.247 C 178.982 172.909,178.909 172.820,178.887 173.048 M174.738 174.753 C 174.721 175.006,174.635 175.442,174.547 175.720 C 174.396 176.200,174.405 176.201,174.704 175.734 C 174.878 175.463,174.964 175.028,174.895 174.767 C 174.783 174.339,174.767 174.337,174.738 174.753 M178.334 175.536 C 178.311 175.764,178.223 176.261,178.139 176.641 C 178.006 177.239,178.028 177.266,178.299 176.841 C 178.472 176.570,178.559 176.073,178.494 175.735 C 178.429 175.397,178.357 175.308,178.334 175.536 M177.779 178.070 C 177.761 178.324,177.675 178.759,177.588 179.038 C 177.437 179.517,177.445 179.518,177.745 179.051 C 177.919 178.781,178.005 178.345,177.936 178.084 C 177.824 177.656,177.808 177.655,177.779 178.070 M183.138 178.853 C 183.034 179.180,183.011 179.510,183.087 179.586 C 183.163 179.662,183.310 179.456,183.414 179.129 C 183.518 178.802,183.540 178.473,183.464 178.396 C 183.388 178.320,183.241 178.526,183.138 178.853 M172.834 180.581 C 172.363 181.882,172.428 182.235,172.927 181.085 C 173.153 180.564,173.301 180.027,173.255 179.891 C 173.210 179.754,173.020 180.065,172.834 180.581 M177.226 180.005 C 177.209 180.259,177.123 180.694,177.035 180.973 C 176.884 181.453,176.892 181.453,177.192 180.986 C 177.366 180.716,177.452 180.280,177.383 180.019 C 177.271 179.591,177.255 179.590,177.226 180.005 M176.145 183.610 C 175.796 184.679,175.557 185.601,175.615 185.658 C 175.672 185.716,176.010 184.892,176.365 183.829 C 176.720 182.765,176.959 181.843,176.895 181.780 C 176.832 181.717,176.494 182.540,176.145 183.610 M181.386 184.255 C 180.922 185.272,181.011 185.488,181.512 184.564 C 181.745 184.133,181.885 183.728,181.822 183.665 C 181.759 183.602,181.562 183.867,181.386 184.255 M184.874 185.336 C 184.618 186.027,184.463 186.593,184.529 186.593 C 184.722 186.593,185.509 184.585,185.420 184.319 C 185.376 184.186,185.130 184.644,184.874 185.336 M180.393 186.359 C 180.154 186.838,179.959 187.302,179.959 187.388 C 179.959 187.628,180.672 186.520,180.871 185.971 C 181.158 185.180,180.861 185.421,180.393 186.359 M169.623 188.142 C 164.878 198.134,155.544 205.713,144.755 208.336 C 143.683 208.596,142.965 208.862,143.160 208.927 C 145.839 209.820,158.817 202.917,162.869 198.444 C 166.283 194.676,171.360 186.749,170.751 186.139 C 170.685 186.073,170.177 186.974,169.623 188.142 M179.342 188.321 C 179.120 188.663,178.788 189.254,178.604 189.634 C 178.134 190.604,178.987 189.569,179.572 188.459 C 180.055 187.543,179.905 187.453,179.342 188.321 M183.063 189.145 C 182.722 189.767,182.498 190.330,182.564 190.396 C 182.630 190.462,182.950 189.995,183.276 189.357 C 183.601 188.720,183.826 188.156,183.775 188.106 C 183.724 188.055,183.404 188.523,183.063 189.145 M173.519 190.056 C 173.111 190.888,172.836 191.569,172.908 191.569 C 173.094 191.569,174.488 188.771,174.364 188.646 C 174.307 188.590,173.927 189.224,173.519 190.056 M177.404 191.246 C 175.845 193.884,168.258 200.416,167.561 199.720 C 167.494 199.653,168.182 198.631,169.090 197.449 C 170.560 195.534,171.466 194.224,171.053 194.610 C 170.422 195.199,166.399 200.492,166.503 200.597 C 166.738 200.832,168.735 199.673,170.991 197.993 C 173.867 195.851,178.956 190.463,178.102 190.463 C 177.972 190.463,177.658 190.815,177.404 191.246 M180.824 192.882 C 175.786 200.504,165.576 207.528,154.388 211.068 C 153.780 211.260,153.482 211.430,153.725 211.445 C 154.157 211.471,155.493 211.101,156.600 210.647 C 156.904 210.522,157.899 210.138,158.811 209.794 C 165.382 207.311,171.963 202.975,177.124 197.726 C 179.550 195.259,180.430 194.155,181.866 191.776 C 182.974 189.941,182.284 190.673,180.824 192.882 M172.198 192.443 C 172.010 192.799,171.674 193.369,171.452 193.711 C 171.231 194.053,171.109 194.333,171.182 194.333 C 171.414 194.333,172.819 192.077,172.676 191.934 C 172.601 191.859,172.386 192.088,172.198 192.443 M121.663 195.494 C 121.393 204.205,131.905 211.481,141.668 209.341 C 142.463 209.167,141.540 209.097,138.351 209.092 C 128.949 209.077,123.338 204.807,122.046 196.683 C 121.814 195.224,121.684 194.820,121.663 195.494 M174.292 236.858 L 173.462 237.047 173.324 248.944 C 173.158 263.219,173.142 263.276,169.173 263.239 C 166.637 263.215,165.527 262.229,164.890 259.433 L 164.575 258.051 162.661 258.051 L 160.746 258.051 160.664 259.318 C 160.116 267.743,173.397 270.538,176.972 262.751 C 177.796 260.955,178.165 237.871,177.380 237.220 C 176.858 236.786,175.369 236.612,174.292 236.858 M190.187 236.875 L 189.496 237.067 189.424 251.674 C 189.343 268.102,189.196 267.035,191.547 267.035 C 193.828 267.035,193.780 267.170,193.780 260.790 C 193.780 254.603,193.695 254.869,195.669 254.876 C 197.589 254.883,197.701 254.998,201.379 260.725 C 205.733 267.506,205.267 267.035,207.630 267.035 C 210.434 267.035,210.421 266.975,206.254 260.815 C 202.672 255.519,202.200 254.596,203.070 254.596 C 203.315 254.596,204.303 254.220,205.266 253.760 C 211.575 250.749,211.579 241.006,205.273 237.918 C 203.076 236.842,192.847 236.135,190.187 236.875 M177.136 249.551 C 177.062 260.955,177.016 262.002,176.542 262.954 C 173.094 269.892,161.246 267.425,161.057 259.730 L 161.023 258.328 162.102 258.239 C 163.995 258.084,164.393 258.315,164.599 259.687 C 165.210 263.763,170.486 265.265,172.799 262.022 L 173.462 261.092 173.536 249.482 C 173.623 235.917,173.417 237.180,175.538 237.180 L 177.216 237.180 177.136 249.551 M204.421 237.869 C 211.764 240.607,211.171 251.921,203.573 254.049 C 201.701 254.573,201.720 254.630,205.647 260.509 C 209.854 266.808,209.838 266.759,207.655 266.759 C 205.589 266.759,205.762 266.935,201.929 260.954 C 197.580 254.167,197.971 254.556,195.588 254.654 L 193.642 254.734 193.490 260.677 C 193.406 263.946,193.313 266.652,193.283 266.690 C 192.977 267.072,190.165 266.682,189.920 266.224 C 189.587 265.603,189.509 237.673,189.839 237.343 C 190.310 236.872,202.971 237.329,204.421 237.869 M193.627 240.574 C 193.553 240.769,193.526 243.412,193.567 246.449 L 193.642 251.970 197.650 251.968 C 203.868 251.966,205.770 250.614,205.794 246.179 C 205.812 242.925,204.469 241.156,201.497 240.518 C 199.475 240.085,193.800 240.125,193.627 240.574 M202.880 241.389 C 204.793 242.339,205.391 243.440,205.386 245.998 C 205.376 250.356,203.988 251.372,197.858 251.506 L 193.780 251.595 193.780 246.207 C 193.780 242.167,193.867 240.780,194.126 240.660 C 195.078 240.219,201.621 240.764,202.880 241.389 " stroke="none" fill="#646464" fill-rule="evenodd"></path></g></svg>